<svg width="164" height="69" viewBox="0 0 164 69" fill="none" xmlns="http://www.w3.org/2000/svg">
<path opacity="0.34" d="M81.4229 53.3836L58.5102 65.1245L130.781 65.1053L134.211 55.0782L135.336 20.0242L79.443 18.2299L81.4229 53.3836Z" stroke="black" stroke-opacity="0.648" stroke-width="1.57134"/>
<path opacity="0.34" d="M85.3039 53.5081L86.2542 23.907L132.106 23.8194L128.776 54.9037L85.3039 53.5081Z" stroke="black" stroke-opacity="0.648" stroke-width="1.57134"/>
<g opacity="0.34">
<path d="M74.9873 60.1951L70.2295 63.1614L77.2162 63.3857L80.4214 60.3695L74.9873 60.1951Z" stroke="black" stroke-opacity="0.648" stroke-width="1.57134"/>
<path d="M81.0977 63.5103L83.5266 60.4692L89.7119 61.4475L88.8606 63.7596L81.0977 63.5103Z" stroke="black" stroke-opacity="0.648" stroke-width="1.57134"/>
<path d="M91.1895 63.8343L92.0658 60.7433L111.473 61.3664L111.398 63.7033L91.1895 63.8343Z" stroke="black" stroke-opacity="0.648" stroke-width="1.57134"/>
<path d="M114.503 63.803C113.882 63.7831 114.278 62.7561 114.553 62.2451L113.802 61.4412L123.919 60.9862L123.819 64.1021L114.503 63.803Z" stroke="black" stroke-opacity="0.648" stroke-width="1.57134"/>
<path d="M76.5649 59.4659L81.3227 56.4995L88.3094 56.7238L84.3279 59.7151L76.5649 59.4659Z" stroke="black" stroke-opacity="0.648" stroke-width="1.57134"/>
</g>
<path opacity="0.34" d="M76.8018 47.8367L73.563 56.6402L63.8144 53.3581L68.5776 58.4596L68.4506 62.4145L71.4673 60.5319L75.3413 62.6357L76.4526 58.7125L82.4541 55.936L77.5322 55.778L76.8018 47.8367Z" stroke="black" stroke-opacity="0.648" stroke-width="1.57134"/>
<g opacity="0.34">
<path d="M120.838 35.9521L121.097 34.0594L126.793 33.614V35.0614H125.067L125.498 44.414L123.686 45.3047L123.341 35.0614L120.838 35.9521Z" stroke="black" stroke-opacity="0.648" stroke-width="1.25707"/>
<path d="M134.855 37.1294L135.38 36.7844L134.226 35.0268V37.1294H134.855ZM134.855 40.5902H134.226V40.775L134.327 40.9305L134.855 40.5902ZM136.408 43.0026L135.88 43.3429L136.431 44.1985L136.949 43.3228L136.408 43.0026ZM138.946 38.716L139.506 38.4317L138.988 37.4104L138.405 38.3959L138.946 38.716ZM141.12 43.0026L140.56 43.287L141.209 44.5667L141.709 43.2218L141.12 43.0026ZM141.845 41.0542L142.434 41.2733L142.526 41.0272L142.415 40.7891L141.845 41.0542ZM138.221 33.2604L138.791 32.9953L138.085 31.477L137.617 33.0849L138.221 33.2604ZM136.408 39.4954L135.883 39.8404L136.631 40.9802L137.012 39.6708L136.408 39.4954ZM134.226 37.1294V40.5902H135.484V37.1294H134.226ZM136.937 42.6623L135.383 40.2499L134.327 40.9305L135.88 43.3429L136.937 42.6623ZM138.405 38.3959L135.868 42.6825L136.949 43.3228L139.487 39.0362L138.405 38.3959ZM141.681 42.7182L139.506 38.4317L138.385 39.0004L140.56 43.287L141.681 42.7182ZM141.256 40.835L140.531 42.7834L141.709 43.2218L142.434 41.2733L141.256 40.835ZM137.651 33.5254L141.275 41.3192L142.415 40.7891L138.791 32.9953L137.651 33.5254ZM137.012 39.6708L138.824 33.4358L137.617 33.0849L135.805 39.32L137.012 39.6708ZM134.33 37.4743L135.883 39.8404L136.934 39.1504L135.38 36.7844L134.33 37.4743Z" fill="black" fill-opacity="0.648"/>
<path d="M143.99 43.6422L145.283 33.2505H146.576L145.714 41.5639L150.454 41.1482V43.6422H143.99Z" stroke="black" stroke-opacity="0.648" stroke-width="1.25707"/>
<path d="M95.7246 40.7335L103.051 33.2515L103.912 33.6671L97.4484 40.3178L105.205 44.0589L104.343 45.3059L95.7246 40.7335Z" stroke="black" stroke-opacity="0.648" stroke-width="1.25707"/>
<path d="M162.521 40.4745L154.529 33.2505L153.589 33.6518L160.641 40.0732L152.178 43.6852L153.119 44.8892L162.521 40.4745Z" stroke="black" stroke-opacity="0.648" stroke-width="1.25707"/>
<path d="M107.791 44.0577L106.498 34.913L107.791 34.4974L109.084 37.8227H115.117L114.255 33.666H116.41L118.564 44.0577L116.41 44.8891L115.117 39.4854H109.084C109.515 40.8709 110.377 43.7252 110.377 44.0577C110.377 44.3903 108.653 44.1963 107.791 44.0577Z" stroke="black" stroke-opacity="0.648" stroke-width="1.25707"/>
</g>
<g opacity="0.34">
<path d="M70.0984 55.3959L54.1831 30.0081C59.9162 37.9454 70.715 52.6708 72.8959 54.7384L72.4441 56.1125L70.0984 55.3959Z" stroke="black" stroke-opacity="0.648" stroke-width="1.57134"/>
<path d="M57.1667 16.1592C58.0672 17.5331 59.8681 20.4458 59.8681 21.1052H67.9723L63.47 26.0513H40.9584L36.4561 21.1052L45.4607 20.2809L49.0625 16.1592H57.1667Z" stroke="black" stroke-opacity="0.648" stroke-width="1.57134"/>
<path d="M41.3799 26.0512L38.4253 22.0944H42.3648L43.3497 26.0512H41.3799Z" stroke="black" stroke-opacity="0.648" stroke-width="1.57134"/>
<path d="M46.3044 26.0512L45.3195 22.0944H49.259V26.0512H46.3044Z" stroke="black" stroke-opacity="0.648" stroke-width="1.57134"/>
<path d="M54.2566 26.6728L54.1834 22.0944H58.1229L57.2113 26.6728H54.2566Z" stroke="black" stroke-opacity="0.648" stroke-width="1.57134"/>
<path d="M61.0776 26.0512L62.0625 22.0944H66.002L64.0322 26.0512H61.0776Z" stroke="black" stroke-opacity="0.648" stroke-width="1.57134"/>
<path d="M50.2442 30.0081L46.3047 28.0297H60.093L57.1384 30.0081H50.2442Z" stroke="black" stroke-opacity="0.648" stroke-width="1.57134"/>
</g>
<g opacity="0.36">
<path d="M31.4419 18.8058L32.5726 15.9183L34.4861 18.8058H31.4419Z" stroke="black" stroke-opacity="0.648" stroke-width="1.97409"/>
<path d="M2.81006 4.44908L3.71508 2.48389H4.62011L5.52514 3.46648V4.44908L3.71508 5.43168L2.81006 4.44908Z" stroke="black" stroke-opacity="0.648" stroke-width="1.57134"/>
<path d="M7.33519 1.50136L2.91348 1L1 5.43175L3.57716 8.2298M7.33519 1.50136L30.8659 13.2925L32.3104 15.6451M7.33519 1.50136V5.43175M3.71508 8.37954L26.3407 18.2055L31.3169 18.8058M3.71508 8.37954L7.33519 5.43175M3.71508 8.37954L3.57716 8.2298M7.33519 5.43175L3.57716 8.2298M31.3169 18.8058H34.486L32.3104 15.6451M31.3169 18.8058L32.3104 17.2229V15.6451" stroke="black" stroke-opacity="0.648" stroke-width="1.57134"/>
<path d="M26.3413 15.2576L28.2079 18.4792L31.4967 18.8057L32.6926 16.5198L30.8664 13.2924L27.311 12.9277L29.0564 15.2576H26.3413Z" stroke="black" stroke-opacity="0.648" stroke-width="1.57134"/>
<path d="M7.21895 3.40625L27.3105 13.031M6.26221 6.29368L27.3105 16.8809" stroke="black" stroke-opacity="0.648" stroke-width="1.57134"/>
</g>
</svg>
