<svg width="192" height="192" viewBox="0 0 192 192" fill="none" xmlns="http://www.w3.org/2000/svg">
<g opacity="0.36">
<mask id="path-1-inside-1" fill="white">
<path fill-rule="evenodd" clip-rule="evenodd" d="M95.7358 191.472C148.609 191.472 191.472 148.609 191.472 95.7358C191.472 42.8624 148.609 0 95.7358 0C42.8624 0 0 42.8624 0 95.7358C0 148.609 42.8624 191.472 95.7358 191.472ZM44.5666 19.8075L56.1209 36.3137L24.7592 41.2655L9.90359 80.8804L24.7592 89.1334L9.90359 107.29L24.7592 145.254L34.6629 138.652L52.8197 112.242L34.6629 100.688V90.784L69.3258 100.688L84.1814 72.6273L72.6271 44.5667L102.338 28.0606L99.037 4.95192C74.4567 1.70177 64.8766 5.27723 44.5666 19.8075ZM148.556 36.3137L132.049 56.1211L141.953 64.3742L148.556 56.1211L153.507 70.9766H125.447L117.194 89.1334H141.953L158.459 100.688H117.194L102.338 122.146L117.194 145.254H153.507L163.411 122.146L174.965 112.242L183.218 122.146L183.225 122.106C185.976 106.015 187.625 96.3676 183.218 80.8804C177.184 59.6733 167.04 43.3107 148.556 36.3137Z"/>
</mask>
<path d="M56.1209 36.3137L56.4664 38.5016L59.9691 37.9485L57.9355 35.0434L56.1209 36.3137ZM44.5666 19.8075L43.2778 18.006L41.4947 19.2817L42.7519 21.0777L44.5666 19.8075ZM24.7592 41.2655L24.4137 39.0776L23.1385 39.2789L22.6852 40.4878L24.7592 41.2655ZM9.90359 80.8804L7.82959 80.1026L7.15942 81.8897L8.82788 82.8166L9.90359 80.8804ZM24.7592 89.1334L26.4735 90.5361L28.1521 88.4845L25.8349 87.1972L24.7592 89.1334ZM9.90359 107.29L8.18925 105.888L7.36863 106.891L7.84086 108.097L9.90359 107.29ZM24.7592 145.254L22.6964 146.062L23.6989 148.623L25.9878 147.097L24.7592 145.254ZM34.6629 138.652L35.8915 140.495L36.2465 140.258L36.4881 139.907L34.6629 138.652ZM52.8197 112.242L54.6449 113.497L55.9453 111.606L54.0089 110.373L52.8197 112.242ZM34.6629 100.688H32.4478V101.904L33.4737 102.557L34.6629 100.688ZM34.6629 90.784L35.2714 88.6542L32.4478 87.8475V90.784H34.6629ZM69.3258 100.688L68.7173 102.818L70.4435 103.311L71.2835 101.724L69.3258 100.688ZM84.1814 72.6273L86.139 73.6636L86.6254 72.745L86.2296 71.7839L84.1814 72.6273ZM72.6271 44.5667L71.5514 42.6305L69.8285 43.5876L70.5789 45.4101L72.6271 44.5667ZM102.338 28.0606L103.414 29.9969L104.747 29.2565L104.531 27.7473L102.338 28.0606ZM99.037 4.95192L101.23 4.63867L100.992 2.97615L99.3273 2.756L99.037 4.95192ZM132.049 56.1211L130.348 54.7031L128.93 56.4047L130.631 57.8227L132.049 56.1211ZM148.556 36.3137L149.34 34.2421L147.864 33.6835L146.854 34.8956L148.556 36.3137ZM141.953 64.3742L140.535 66.0758L142.271 67.5225L143.683 65.7579L141.953 64.3742ZM148.556 56.1211L150.657 55.4206L149.369 51.558L146.826 54.7374L148.556 56.1211ZM153.507 70.9766V73.1917H156.581L155.609 70.2762L153.507 70.9766ZM125.447 70.9766V68.7616H124.021L123.43 70.0601L125.447 70.9766ZM117.194 89.1334L115.177 88.2169L113.754 91.3485H117.194V89.1334ZM141.953 89.1334L143.223 87.3188L142.651 86.9184H141.953V89.1334ZM158.459 100.688V102.903H165.486L159.729 98.8731L158.459 100.688ZM117.194 100.688V98.4727H116.033L115.373 99.4269L117.194 100.688ZM102.338 122.146L100.517 120.885L99.6757 122.1L100.475 123.344L102.338 122.146ZM117.194 145.254L115.331 146.452L115.984 147.469H117.194V145.254ZM153.507 145.254V147.469H154.968L155.543 146.127L153.507 145.254ZM163.411 122.146L161.97 120.464L161.578 120.799L161.375 121.273L163.411 122.146ZM174.965 112.242L176.667 110.824L175.229 109.099L173.524 110.56L174.965 112.242ZM183.218 122.146L181.517 123.564L184.591 127.253L185.402 122.52L183.218 122.146ZM183.225 122.106L185.408 122.48L185.409 122.48L183.225 122.106ZM183.218 80.8804L181.088 81.4866L181.088 81.4866L183.218 80.8804ZM189.257 95.7358C189.257 147.386 147.386 189.257 95.7358 189.257V193.687C149.833 193.687 193.687 149.833 193.687 95.7358H189.257ZM95.7358 2.21503C147.386 2.21503 189.257 44.0857 189.257 95.7358H193.687C193.687 41.6391 149.833 -2.21503 95.7358 -2.21503V2.21503ZM2.21503 95.7358C2.21503 44.0857 44.0857 2.21503 95.7358 2.21503V-2.21503C41.6391 -2.21503 -2.21503 41.6391 -2.21503 95.7358H2.21503ZM95.7358 189.257C44.0857 189.257 2.21503 147.386 2.21503 95.7358H-2.21503C-2.21503 149.833 41.6391 193.687 95.7358 193.687V189.257ZM57.9355 35.0434L46.3812 18.5373L42.7519 21.0777L54.3063 37.5839L57.9355 35.0434ZM25.1046 43.4534L56.4664 38.5016L55.7754 34.1257L24.4137 39.0776L25.1046 43.4534ZM11.9776 81.6581L26.8332 42.0433L22.6852 40.4878L7.82959 80.1026L11.9776 81.6581ZM25.8349 87.1972L10.9793 78.9441L8.82788 82.8166L23.6834 91.0697L25.8349 87.1972ZM11.6179 108.693L26.4735 90.5361L23.0448 87.7308L8.18925 105.888L11.6179 108.693ZM26.8219 144.447L11.9663 106.483L7.84086 108.097L22.6964 146.062L26.8219 144.447ZM33.4342 136.809L23.5305 143.411L25.9878 147.097L35.8915 140.495L33.4342 136.809ZM50.9944 110.987L32.8376 137.397L36.4881 139.907L54.6449 113.497L50.9944 110.987ZM33.4737 102.557L51.6305 114.111L54.0089 110.373L35.8521 98.819L33.4737 102.557ZM32.4478 90.784V100.688H36.8779V90.784H32.4478ZM69.9344 98.558L35.2714 88.6542L34.0543 92.9139L68.7173 102.818L69.9344 98.558ZM82.2238 71.5909L67.3682 99.6514L71.2835 101.724L86.139 73.6636L82.2238 71.5909ZM70.5789 45.4101L82.1332 73.4706L86.2296 71.7839L74.6753 43.7234L70.5789 45.4101ZM101.262 26.1243L71.5514 42.6305L73.7028 46.503L103.414 29.9969L101.262 26.1243ZM96.8442 5.26517L100.145 28.3738L104.531 27.7473L101.23 4.63867L96.8442 5.26517ZM45.8554 21.609C55.9828 14.3636 63.195 10.0328 70.813 7.84071C78.3945 5.65905 86.5846 5.5397 98.7466 7.14784L99.3273 2.756C86.9091 1.11399 78.0189 1.1573 69.5879 3.5834C61.1933 5.99901 53.4604 10.7211 43.2778 18.006L45.8554 21.609ZM133.751 57.5391L150.257 37.7317L146.854 34.8956L130.348 54.7031L133.751 57.5391ZM143.371 62.6725L133.467 54.4194L130.631 57.8227L140.535 66.0758L143.371 62.6725ZM146.826 54.7374L140.223 62.9905L143.683 65.7579L150.285 57.5048L146.826 54.7374ZM155.609 70.2762L150.657 55.4206L146.454 56.8215L151.406 71.6771L155.609 70.2762ZM125.447 73.1917H153.507V68.7616H125.447V73.1917ZM119.21 90.05L127.463 71.8932L123.43 70.0601L115.177 88.2169L119.21 90.05ZM141.953 86.9184H117.194V91.3485H141.953V86.9184ZM159.729 98.8731L143.223 87.3188L140.683 90.9481L157.189 102.502L159.729 98.8731ZM117.194 102.903H158.459V98.4727H117.194V102.903ZM104.159 123.407L119.015 101.949L115.373 99.4269L100.517 120.885L104.159 123.407ZM119.057 144.057L104.201 120.948L100.475 123.344L115.331 146.452L119.057 144.057ZM153.507 143.039H117.194V147.469H153.507V143.039ZM161.375 121.273L151.471 144.382L155.543 146.127L165.447 123.018L161.375 121.273ZM173.524 110.56L161.97 120.464L164.853 123.828L176.407 113.924L173.524 110.56ZM184.92 120.728L176.667 110.824L173.264 113.66L181.517 123.564L184.92 120.728ZM181.042 121.733L181.035 121.772L185.402 122.52L185.408 122.48L181.042 121.733ZM181.088 81.4866C185.347 96.4522 183.789 105.662 181.042 121.733L185.409 122.48C188.163 106.368 189.904 96.283 185.349 80.2741L181.088 81.4866ZM147.771 38.3853C165.301 45.0207 175.136 60.57 181.088 81.4866L185.349 80.2741C179.232 58.7766 168.78 41.6006 149.34 34.2421L147.771 38.3853Z" fill="black" fill-opacity="0.36" mask="url(#path-1-inside-1)"/>
</g>
</svg>
