<svg width="95" height="64" viewBox="0 0 95 64" fill="none" xmlns="http://www.w3.org/2000/svg">
<g style="mix-blend-mode:hard-light">
<g opacity="0.36">
<path d="M9.44855 45.4845L9.07227 41.2058C9.75177 41.989 11.1073 43.6505 11.0936 44.0315C11.0798 44.4126 13.9091 44.4651 15.3254 44.4437L17.3467 47.2695L14.7427 45.8806L9.44855 45.4845Z" stroke="black" stroke-opacity="0.648" stroke-width="1.22562"/>
<path d="M31.3536 42.2726L27.5259 39.79C28.6647 39.8461 31.0192 40.0212 31.3261 40.2731C31.6331 40.525 33.7073 38.7128 34.706 37.7752L38.5063 38.2583L35.4826 39.0715L31.3536 42.2726Z" stroke="black" stroke-opacity="0.648" stroke-width="1.22562"/>
<path d="M21.1151 44.409L8.62682 39.7434L1.57443 44.8348C1.45993 44.278 6.05994 40.5178 8.19743 37.6555L20.3995 40.9292L26.6688 31.6462L36.1739 32.6287L38.1204 31.6547L44.5713 29.7169L36.2989 34.7279L28.1689 34.9633L22.6725 42.3236M21.1151 44.409L24.6126 45.5082L27.3312 44.3115L24.4014 44.4814L22.6725 42.3236M21.1151 44.409L22.6725 42.3236M12.6932 35.2714L18.7563 36.9161L22.1057 33.3186L18.3927 35.1481L12.6932 35.2714Z" stroke="black" stroke-opacity="0.648" stroke-width="1.22562"/>
</g>
<path opacity="0.36" d="M38.2346 8.01418L45.2182 6.61133H41.028L36.8379 8.01418L41.028 13.6256L38.2346 8.01418Z" stroke="black" stroke-opacity="0.648" stroke-width="1.22562"/>
<path opacity="0.36" d="M34.0447 8.01418L36.8381 6.61133L32.6479 8.01418L34.0447 10.8199V8.01418Z" stroke="black" stroke-opacity="0.648" stroke-width="1.22562"/>
<path opacity="0.36" d="M54.1195 60.4527L53.1797 60.6603L53.3753 61.55L54.2744 61.4025L54.1195 60.4527ZM43.8218 10.8105L43.7115 9.85454L42.7556 9.96581L42.8659 10.9218L43.8218 10.8105ZM85.5133 55.3031L85.6681 56.2528L86.7247 56.0795L86.4412 55.0472L85.5133 55.3031ZM72.3797 7.4863L73.3076 7.23049L73.0891 6.43489L72.2694 6.5303L72.3797 7.4863ZM56.0653 55.9894L55.1192 56.1659L55.2831 57.0493L56.1756 56.9454L56.0653 55.9894ZM48.6274 15.9001L48.5171 14.9441L47.4933 15.0632L47.6813 16.0766L48.6274 15.9001ZM79.6516 53.2439L79.7619 54.1999L80.8214 54.0766L80.5912 53.0352L79.6516 53.2439ZM70.8263 13.316L71.7659 13.1074L71.5785 12.2596L70.716 12.36L70.8263 13.316ZM49.5325 11.558L49.4222 10.602L49.025 10.6483L48.7773 10.9623L49.5325 11.558ZM48.3059 13.1131L47.5507 12.5174L46.9569 13.2701L47.7063 13.8665L48.3059 13.1131ZM50.9199 11.3965L51.5195 10.6431L51.2068 10.3943L50.8096 10.4405L50.9199 11.3965ZM52.4681 12.6286L53.424 12.5173L53.3785 12.1225L53.0677 11.8752L52.4681 12.6286ZM52.6289 14.0221L52.7393 14.9781L53.6951 14.8668L53.5848 13.9108L52.6289 14.0221ZM49.8541 14.3451L49.2546 15.0985L49.5673 15.3473L49.9644 15.3011L49.8541 14.3451ZM55.0822 10.912L54.9719 9.956L54.5747 10.0022L54.327 10.3163L55.0822 10.912ZM62.0193 10.1045L62.1297 11.0605L62.0193 10.1045ZM53.8556 12.467L53.1004 11.8713L52.2764 12.9159L53.5252 13.3713L53.8556 12.467ZM56.7912 13.5376L56.4608 14.4418L56.675 14.5199L56.9015 14.4936L56.7912 13.5376ZM63.7284 12.7301L63.8387 13.6861L64.0652 13.6597L64.2559 13.5345L63.7284 12.7301ZM66.3424 11.0135L66.87 11.8179L68.4726 10.7656L66.6728 10.1092L66.3424 11.0135ZM63.4068 9.943L63.7371 9.03872L63.523 8.96062L63.2965 8.98699L63.4068 9.943ZM55.0593 60.2451C53.4569 52.9569 51.0193 41.7297 48.9145 31.7354C46.8024 21.7074 45.0435 13.0029 44.7777 10.6993L42.8659 10.9218C43.1449 13.3398 44.932 22.1664 47.0313 32.134C49.1377 42.1354 51.5766 53.3685 53.1797 60.6603L55.0593 60.2451ZM85.3585 54.3533L53.9647 59.5029L54.2744 61.4025L85.6681 56.2528L85.3585 54.3533ZM71.4518 7.74212L84.5854 55.5589L86.4412 55.0472L73.3076 7.23049L71.4518 7.74212ZM43.9321 11.7666L72.49 8.44231L72.2694 6.5303L43.7115 9.85454L43.9321 11.7666ZM57.0114 55.8129L49.5735 15.7236L47.6813 16.0766L55.1192 56.1659L57.0114 55.8129ZM79.5413 52.2879L55.955 55.0334L56.1756 56.9454L79.7619 54.1999L79.5413 52.2879ZM69.8867 13.5247L78.7121 53.4525L80.5912 53.0352L71.7659 13.1074L69.8867 13.5247ZM48.7377 16.8561L70.9366 14.272L70.716 12.36L48.5171 14.9441L48.7377 16.8561ZM48.7773 10.9623L47.5507 12.5174L49.0611 13.7088L50.2877 12.1537L48.7773 10.9623ZM50.8096 10.4405L49.4222 10.602L49.6428 12.514L51.0302 12.3525L50.8096 10.4405ZM53.0677 11.8752L51.5195 10.6431L50.3204 12.1499L51.8686 13.382L53.0677 11.8752ZM53.5848 13.9108L53.424 12.5173L51.5123 12.7398L51.673 14.1334L53.5848 13.9108ZM49.9644 15.3011L52.7393 14.9781L52.5186 13.0661L49.7438 13.3891L49.9644 15.3011ZM47.7063 13.8665L49.2546 15.0985L50.4536 13.5917L48.9054 12.3597L47.7063 13.8665ZM55.1925 11.868L62.1297 11.0605L61.909 9.14849L54.9719 9.956L55.1925 11.868ZM54.6108 13.0627L55.8374 11.5077L54.327 10.3163L53.1004 11.8713L54.6108 13.0627ZM57.1216 12.6333L54.1859 11.5628L53.5252 13.3713L56.4608 14.4418L57.1216 12.6333ZM63.6181 11.774L56.6809 12.5816L56.9015 14.4936L63.8387 13.6861L63.6181 11.774ZM65.8149 10.2091L63.2008 11.9256L64.2559 13.5345L66.87 11.8179L65.8149 10.2091ZM63.0764 10.8473L66.0121 11.9178L66.6728 10.1092L63.7371 9.03872L63.0764 10.8473ZM62.1297 11.0605L63.5171 10.899L63.2965 8.98699L61.909 9.14849L62.1297 11.0605Z" fill="black" fill-opacity="0.648"/>
<path opacity="0.36" d="M89.9135 58.5171L87.1201 50.1L91.3102 58.5171L84.3267 62.7257V61.3228L89.9135 58.5171Z" stroke="black" stroke-opacity="0.648" stroke-width="1.22562"/>
<path opacity="0.36" d="M92.9861 59.92L90.7513 54.3086L94.1035 59.92L88.5166 62.7257V61.7905L92.9861 59.92Z" stroke="black" stroke-opacity="0.648" stroke-width="1.22562"/>
<path opacity="0.36" d="M75.9462 5.20852H70.3594L77.343 3.80566V16.4314L75.9462 5.20852Z" stroke="black" stroke-opacity="0.648" stroke-width="1.22562"/>
<path opacity="0.36" d="M78.7399 2.40286H71.7563L80.1366 1V8.01428L78.7399 2.40286Z" stroke="black" stroke-opacity="0.648" stroke-width="1.22562"/>
</g>
</svg>
