<svg width="80" height="70" viewBox="0 0 80 70" fill="none" xmlns="http://www.w3.org/2000/svg">
<g opacity="0.34">
<path d="M28.0504 50.7236C28.0331 55.4186 28.2018 65.0365 29.0153 65.948L76.5029 66.0209L77.1935 53.4158L66.2708 49.2051L68.1559 34.4981L34.3386 34.4516L36.0604 48.995L28.0504 50.7236Z" stroke="black" stroke-width="1.7616"/>
<path d="M40.167 46.4747L39.4233 40.1486L44.4235 40.4225L44.9498 46.7367L40.167 46.4747Z" stroke="black" stroke-width="1.7616"/>
<path d="M45.6763 64.1154L44.9326 57.7893L49.9328 58.0632L50.4591 64.3774L45.6763 64.1154Z" stroke="black" stroke-width="1.7616"/>
<path d="M57.0428 46.8934L57.3979 40.4108L62.3981 40.6847L61.3908 47.1316L57.0428 46.8934Z" stroke="black" stroke-width="1.7616"/>
<path d="M53.9041 64.7828L54.2593 58.3002L59.2595 58.5741L58.2521 65.021L53.9041 64.7828Z" stroke="black" stroke-width="1.7616"/>
<path d="M34.3296 54.3186L33.7377 65.123L40.9908 64.0755L38.8606 54.5668L34.3296 54.3186Z" stroke="black" stroke-width="1.7616"/>
<path d="M65.5371 56.0283L63.9874 64.6129L71.879 65.0452L70.2003 56.2838L65.5371 56.0283Z" stroke="black" stroke-width="1.7616"/>
</g>
<g opacity="0.36">
<path d="M25.4074 13.635L22.217 10.4751L28.5678 8.64032L25.4074 13.635Z" stroke="black" stroke-width="1.4022"/>
<path d="M20.1321 24.8029L17.0941 22.1408L21.3741 21.4473L22.0429 23.9886M16.2917 13.4386L13.6357 16.2662L13.3108 21.4921L17.7246 26.9595L23.4568 24.5166L24.5269 17.2774L21.0303 13.6802L16.2917 13.4386Z" stroke="black" stroke-width="1.4022"/>
<path d="M3.75755 25.5636L7.40711 20.0514L9.69995 24.7269L3.75755 25.5636Z" stroke="black" stroke-width="1.4022"/>
<path d="M14.4524 8.59563L11.3261 11.0173L8.31592 4.19604L14.4524 8.59563Z" stroke="black" stroke-width="1.4022"/>
<path d="M18.8903 28.1585L23.6672 26.1227L23.8773 27.729L19.8075 30.0287L18.8903 28.1585Z" stroke="black" stroke-width="1.4022"/>
<path d="M20.9732 31.2277L24.0877 29.3351L24.0495 31.6125L22.1387 32.4268L20.9732 31.2277Z" stroke="black" stroke-width="1.4022"/>
</g>
</svg>
