<svg width="122" height="106" viewBox="0 0 122 106" fill="none" xmlns="http://www.w3.org/2000/svg">
<rect width="122" height="106" fill="#2A6C63"/>
<path d="M44.0504 67.7236C44.0331 72.4186 44.2018 82.0365 45.0153 82.948L92.5029 83.0209L93.1935 70.4158L82.2708 66.2051L84.1559 51.4981L50.3386 51.4516L52.0604 65.995L44.0504 67.7236Z" stroke="white" stroke-opacity="0.508" stroke-width="1.7616"/>
<path d="M56.167 63.4747L55.4233 57.1486L60.4235 57.4225L60.9498 63.7367L56.167 63.4747Z" stroke="white" stroke-opacity="0.508" stroke-width="1.7616"/>
<path d="M61.6763 81.1154L60.9326 74.7893L65.9328 75.0632L66.4591 81.3774L61.6763 81.1154Z" stroke="white" stroke-opacity="0.508" stroke-width="1.7616"/>
<path d="M73.0428 63.8934L73.3979 57.4108L78.3981 57.6847L77.3908 64.1316L73.0428 63.8934Z" stroke="white" stroke-opacity="0.508" stroke-width="1.7616"/>
<path d="M69.9041 81.7828L70.2593 75.3002L75.2595 75.5741L74.2521 82.021L69.9041 81.7828Z" stroke="white" stroke-opacity="0.508" stroke-width="1.7616"/>
<path d="M50.3296 71.3186L49.7377 82.123L56.9908 81.0755L54.8606 71.5668L50.3296 71.3186Z" stroke="white" stroke-opacity="0.508" stroke-width="1.7616"/>
<path d="M81.5371 73.0283L79.9874 81.6129L87.879 82.0452L86.2003 73.2838L81.5371 73.0283Z" stroke="white" stroke-opacity="0.508" stroke-width="1.7616"/>
<path d="M41.4074 30.635L38.217 27.4751L44.5678 25.6403L41.4074 30.635Z" stroke="white" stroke-opacity="0.508" stroke-width="1.4022"/>
<path d="M36.1321 41.8029L33.0941 39.1408L37.3741 38.4473L38.0429 40.9886M32.2917 30.4386L29.6357 33.2662L29.3108 38.4921L33.7246 43.9595L39.4568 41.5166L40.5269 34.2774L37.0303 30.6802L32.2917 30.4386Z" stroke="white" stroke-opacity="0.508" stroke-width="1.4022"/>
<path d="M19.7576 42.5636L23.4071 37.0514L25.7 41.7269L19.7576 42.5636Z" stroke="white" stroke-opacity="0.508" stroke-width="1.4022"/>
<path d="M30.4524 25.5956L27.3261 28.0173L24.3159 21.196L30.4524 25.5956Z" stroke="white" stroke-opacity="0.508" stroke-width="1.4022"/>
<path d="M34.8903 45.1585L39.6672 43.1227L39.8773 44.729L35.8075 47.0287L34.8903 45.1585Z" stroke="white" stroke-opacity="0.508" stroke-width="1.4022"/>
<path d="M36.9732 48.2277L40.0877 46.3351L40.0495 48.6125L38.1387 49.4268L36.9732 48.2277Z" stroke="white" stroke-opacity="0.508" stroke-width="1.4022"/>
</svg>
