<svg width="1544" height="1258" viewBox="0 0 1544 1258" fill="none" xmlns="http://www.w3.org/2000/svg">
<rect width="1544" height="1258" fill="white"/>
<path d="M658.725 812.838L997.052 806.135L1031.62 819.334L1261.35 828.964L1051.5 869.39L1223.89 920.612L894.047 954.434C786.951 939.696 573.107 909.274 574.503 905.499C575.899 901.724 726.584 883.157 801.752 874.345L658.725 812.838Z" fill="#4F4F4F"/>
<path d="M997.152 913.055L996.798 805.924L1002.79 808.259L997.152 913.055Z" fill="#C4C4C4"/>
<path d="M797.212 928.734L801.555 874.376L791.317 875.494L797.212 928.734Z" fill="#C4C4C4"/>
<path d="M1054.23 928.125L1051.87 869.359L1063.92 872.812L1054.23 928.125Z" fill="#C4C4C4"/>
<path d="M743.62 835.644L740.348 811.451L748.473 811.857L743.62 835.644Z" fill="#C4C4C4"/>
<path d="M1031.29 849.189L1030.32 819.816L1035.19 820.06L1031.29 849.189Z" fill="#C4C4C4"/>
<path d="M650 850L533.5 873L526 901.5C504.333 904.5 459.9 910.5 455.5 910.5C451.1 910.5 409.667 899.5 389.5 894L304 910.5L137 894L148 863.5V798.5L173.5 725L202 696.5L273.5 725L285.5 687.5L345.5 667L517 708.5L567.5 741.5L601.5 798.5L643 818.5L650 850Z" fill="#424242"/>
<path d="M318.598 666.701L328.79 701.646L337.262 702.337L355.761 690.803L382.174 692.957L395.701 711.619L416.032 726.822L448.453 698.364L464.877 663.083L470.527 593.813L329.586 562.75L316.298 633.404L318.598 666.701Z" fill="#7A7A7A"/>
<path d="M388 531L418.5 240L422.5 226.5L433 221L445 227.5V240L409 534L388 531Z" fill="#C4C4C4"/>
<path d="M412 536.5L383.714 532L376 619.5V635.5L381.5 653.5L392.5 635.5L395.5 622L412 536.5Z" fill="#9B9B9B"/>
<path d="M643.764 706.646H672.764V1051.29L659 1056.65L643.764 1051.29V706.646Z" fill="#9F9F9F"/>
<path d="M968 674H991V1019.14L979.58 1023L968 1019.14V674Z" fill="#9F9F9F"/>
<path d="M1012.2 661.402L628.416 669.639L623.957 750.5L1007.42 728.402L1012.2 661.402Z" fill="#C4C4C4"/>
<path d="M652.244 748.752L669.629 670.387L697.916 668.64L680.531 747.006L652.244 748.752Z" fill="#949494"/>
<path d="M712.591 745.026L733.416 667.14L761.703 665.393L740.878 743.279L712.591 745.026Z" fill="#949494"/>
<path d="M772.938 741.302L794.629 666.887L822.916 665.14L801.225 739.555L772.938 741.302Z" fill="#949494"/>
<path d="M833.285 737.575L853.628 665.888L881.916 664.142L861.572 735.829L833.285 737.575Z" fill="#949494"/>
<path d="M893.631 733.848L912.629 664.888L940.916 663.141L921.918 732.101L893.631 733.848Z" fill="#949494"/>
<path d="M953.977 730.122L971.128 663.387L999.416 661.64L982.265 728.375L953.977 730.122Z" fill="#949494"/>
</svg>
